<svg width="120" height="120" viewBox="0 0 120 120" xmlns="http://www.w3.org/2000/svg">
  <defs>
    <linearGradient id="goldGradient" x1="0%" y1="0%" x2="100%" y2="100%">
      <stop offset="0%" stop-color="#f6e27a" />
      <stop offset="25%" stop-color="#d2ac47" />
      <stop offset="50%" stop-color="#edc967" />
      <stop offset="75%" stop-color="#bf953f" />
      <stop offset="100%" stop-color="#f6e27a" />
    </linearGradient>
    <filter id="shadow" x="-20%" y="-20%" width="140%" height="140%">
      <feDropShadow dx="0" dy="0" stdDeviation="2" flood-color="#000" flood-opacity="0.5" />
    </filter>
  </defs>
  
  <!-- Outer Circle -->
  <circle cx="60" cy="60" r="55" fill="none" stroke="url(#goldGradient)" stroke-width="2" />
  
  <!-- Inner Circle -->
  <circle cx="60" cy="60" r="45" fill="none" stroke="url(#goldGradient)" stroke-width="1" />
  
  <!-- Crown -->
  <path d="M40,40 L50,25 L60,40 L70,25 L80,40 L75,45 L45,45 Z" fill="url(#goldGradient)" filter="url(#shadow)" />
  
  <!-- Decorative Elements -->
  <path d="M60,50 L60,85" stroke="url(#goldGradient)" stroke-width="2" />
  <circle cx="60" cy="60" r="15" fill="none" stroke="url(#goldGradient)" stroke-width="2" />
  
  <!-- Fleur-de-lis -->
  <path d="M55,75 Q60,65 65,75 M60,75 L60,85 M57,80 Q60,85 63,80" stroke="url(#goldGradient)" stroke-width="2" fill="none" />
  
  <!-- Decorative Dots -->
  <circle cx="40" cy="60" r="3" fill="url(#goldGradient)" />
  <circle cx="80" cy="60" r="3" fill="url(#goldGradient)" />
  <circle cx="60" cy="40" r="3" fill="url(#goldGradient)" />
  <circle cx="60" cy="80" r="3" fill="url(#goldGradient)" />
</svg>
